<?xml version="1.0" encoding="UTF-8" standalone="no"?>
<!-- Created with Inkscape (http://www.inkscape.org/) -->

<svg
   width="64"
   height="64"
   viewBox="0 0 16.933333 16.933333"
   version="1.1"
   id="svg5"
   inkscape:export-filename="C:\Users\janbi\Desktop\bitmapa.png"
   inkscape:export-xdpi="96"
   inkscape:export-ydpi="96"
   inkscape:version="1.1.1 (3bf5ae0d25, 2021-09-20)"
   sodipodi:docname="rysunek.svg"
   xmlns:inkscape="http://www.inkscape.org/namespaces/inkscape"
   xmlns:sodipodi="http://sodipodi.sourceforge.net/DTD/sodipodi-0.dtd"
   xmlns="http://www.w3.org/2000/svg"
   xmlns:svg="http://www.w3.org/2000/svg">
  <sodipodi:namedview
     id="namedview7"
     pagecolor="#ffffff"
     bordercolor="#666666"
     borderopacity="1.0"
     inkscape:pageshadow="2"
     inkscape:pageopacity="0.0"
     inkscape:pagecheckerboard="true"
     inkscape:document-units="mm"
     showgrid="false"
     units="px"
     inkscape:zoom="5.9295174"
     inkscape:cx="21.924213"
     inkscape:cy="39.547907"
     inkscape:window-width="1920"
     inkscape:window-height="1017"
     inkscape:window-x="-8"
     inkscape:window-y="-8"
     inkscape:window-maximized="1"
     inkscape:current-layer="layer1" />
  <defs
     id="defs2" />
  <g
     inkscape:label="Warstwa 1"
     inkscape:groupmode="layer"
     id="layer1">
    <path
       style="fill:#ff0000;stroke:#000000;stroke-width:0.264583px;stroke-linecap:butt;stroke-linejoin:miter;stroke-opacity:1"
       d="M -4.194411,12.047776 0.80318508,11.556941 0.08924279,7.6748798 3.971304,5.6669169 3.748197,3.1681189 5.8900239,2.1864483 6.9163159,0.71394229 7.1394229,0.53545673 H 9.9505708 L 12.226262,-1.8294772"
       id="path857" />
    <path
       style="fill:#ff0000;stroke:#000000;stroke-width:0.264583px;stroke-linecap:butt;stroke-linejoin:miter;stroke-opacity:1"
       d="M -1.5171274,20.258113 3.52509,17.9378 2.8557693,12.940204 6.8716947,9.0135214 10.88762,8.7457932 10.396785,4.997596 15.215895,1.9633413 19.85652,1.249399 20.882812,-1.2940204"
       id="path859" />
    <path
       style="fill:#ff0000;stroke:#000000;stroke-width:0.264583px;stroke-linecap:butt;stroke-linejoin:miter;stroke-opacity:1"
       d="M 9.9951922,25.30033 7.9872294,20.035006 15.215895,19.097957 9.3704927,14.144982 14.680439,10.798377 14.546574,7.8533653 19.097957,6.4254808 24.497145,3.1234975"
       id="path861" />
    <path
       style="fill:#ff0000;stroke:#000000;stroke-width:0.264583px;stroke-linecap:butt;stroke-linejoin:miter;stroke-opacity:1"
       d="M -3.52509,-0.22310697 0.71394229,1.8740985 3.2573618,0.35697115 4.9529748,0.08924279 7.5856369,-3.52509"
       id="path863" />
    <path
       style="fill:#ff0000;stroke:#000000;stroke-width:0.264583px;stroke-linecap:butt;stroke-linejoin:miter;stroke-opacity:1"
       d="m 18.384014,10.842999 c -0.08924,0.267728 -2.677283,2.811148 -2.677283,2.811148 l 0.401592,1.963341 -0.08924,2.632662 2.409556,8.3442"
       id="path865" />
    <path
       style="fill:#ff0000;stroke:#000000;stroke-width:0.264583px;stroke-linecap:butt;stroke-linejoin:miter;stroke-opacity:1"
       d="M 4.1051683,23.426232 5.44381,16.01908 l 2.2756912,-4.50676 3.5250898,-0.6247 1.695613,-3.3912258 3.792819,-3.5697117 4.952974,-1.249399"
       id="path867" />
    <path
       style="fill:#ff0000;stroke:#000000;stroke-width:0.264583px;stroke-linecap:butt;stroke-linejoin:miter;stroke-opacity:1"
       d="M -4.4175179,16.152945 0.75856369,15.305138 2.3649339,10.798377 1.8294772,8.7011718 5.2653244,6.9609374 8.1657149,6.4254808 8.2103364,3.078876 13.207933,1.1601562 l 1.91872,-3.3912259"
       id="path869" />
    <path
       style="fill:#ff0000;stroke:#000000;stroke-width:0.264583px;stroke-linecap:butt;stroke-linejoin:miter;stroke-opacity:1"
       d="M -1.7848558,5.9792668 1.5617488,4.8637319 2.5434194,2.0972055 4.4621394,1.2940204 7.8979868,-1.1155348"
       id="path871" />
  </g>
</svg>
